<?xml version="1.0" encoding="UTF-8"?>
<svg id="Layer_2" data-name="Layer 2" xmlns="http://www.w3.org/2000/svg" xmlns:xlink="http://www.w3.org/1999/xlink" viewBox="0 0 255 255">
  <defs>
    <style>
      .cls-1 {
        fill: none;
      }

      .cls-2 {
        fill: url(#linear-gradient);
      }
    </style>
    <linearGradient id="linear-gradient" x1="37.26" y1="84.13" x2="102.03" y2="184.74" gradientUnits="userSpaceOnUse">
      <stop offset=".37" stop-color="#c7f200"/>
      <stop offset=".84" stop-color="#00cd17"/>
    </linearGradient>
  </defs>
  <g id="Layer_1-2" data-name="Layer 1">
    <g>
      <circle class="cls-1" cx="127.5" cy="127.5" r="127.5"/>
      <g>
        <path d="m166.64,102.88c-10.64-15.01-21.64-30.53-28.49-51.07l-4.69-14.06-6.18,2.83-3.74,11.22c-5.12,15.35-12.56,27.9-20.43,39.52,2.98,4.56,6.06,8.92,9.12,13.23,6.4-9.16,13-19.14,18.61-30.63,6.92,14.19,15.36,26.09,23.06,36.95,14.85,20.94,27.22,38.39,20.94,61.78-3.1,11.57-11.57,21.32-23.11,26.27-16.51,7.08-32.78,5.16-45.12-2.14-5.31,2.73-11.18,4.61-17.41,5.46,10.91,9.61,25.55,15.51,41.64,15.51,33.62,0,60.98-25.74,60.98-57.38,0-21.96-12.24-39.22-25.19-57.49Z"/>
        <path class="cls-2" d="m103.72,112.7c-7.47-10.53-15.18-21.42-19.99-35.83l-2.71-8.13-5.7,2.61-1.84,5.52c-4.81,14.41-12.52,25.3-19.99,35.83-10.99,15.5-21.24,29.96-16.47,50.48,2.63,11.29,10.54,20.99,21.69,25.84,31.64,13.77,62.67-7.76,62.67-35.99,0-15.41-8.58-27.51-17.67-40.33Z"/>
      </g>
    </g>
  </g>
</svg>