<svg width="20" height="23" viewBox="0 0 20 23" fill="none" xmlns="http://www.w3.org/2000/svg">
    <path d="M16.7705 8.32217C15.4064 6.40422 13.9961 4.42111 13.1179 1.79656L12.5166 0L11.7243 0.361611L11.2448 1.79528C10.5884 3.75667 9.63459 5.36028 8.62562 6.84506C9.00767 7.42772 9.40254 7.98483 9.79485 8.53556C10.6154 7.36511 11.4615 6.08989 12.1807 4.62172C13.0679 6.43489 14.15 7.95545 15.1372 9.34311C17.041 12.0188 18.6269 14.2485 17.8218 17.2372C17.4243 18.7156 16.3384 19.9614 14.859 20.5939C12.7423 21.4986 10.6564 21.2533 9.07434 20.3205C8.3754 20.6775 7.62062 20.9135 6.84229 21.0182C8.241 22.2461 10.1179 23 12.1807 23C16.491 23 19.9987 19.711 19.9987 15.6681C19.9987 12.8621 18.4295 10.6567 16.7692 8.32217H16.7705Z" fill="white"/>
    <path d="M8.70398 9.57683C7.74628 8.23133 6.75782 6.83983 6.14116 4.99855L5.79372 3.95972L5.06295 4.29322L4.82705 4.99855C4.21039 6.83983 3.22193 8.23133 2.26423 9.57683C0.856541 11.5574 -0.457562 13.4063 0.153977 16.0271C0.491156 17.4697 1.50526 18.7091 2.93475 19.3288C6.99116 21.0883 10.9694 18.3373 10.9694 14.7301C10.9694 12.7611 9.86936 11.2149 8.70398 9.57683Z" fill="url(#paint0_linear_111_3)"/>
    <defs>
    <linearGradient id="paint0_linear_111_3" x1="0.183464" y1="5.92622" x2="8.44816" y2="18.8071" gradientUnits="userSpaceOnUse">
    <stop offset="0.37" stop-color="#C7F200"/>
    <stop offset="0.84" stop-color="#00CD17"/>
    </linearGradient>
    </defs>
    </svg>
    